<svg width="19" height="22" viewBox="0 0 19 22" fill="none" xmlns="http://www.w3.org/2000/svg">
<path d="M0.687012 6.72819H4.06518V5.60631H5.19124V4.48442H6.3173V3.36254H5.19124V2.24066L4.06518 2.24066V1.11877H5.19124V-0.00311279L6.3173 -0.00311279V1.11877L7.44336 1.11877V2.24066H8.56941V3.36254H10.8215V2.24066H11.9476V1.11877H13.0736V-0.00311279L14.1997 -0.00311279V1.11877L15.3258 1.11877V2.24066H14.1997V3.36254H13.0736V4.48442H14.1997V5.60631H15.3258V6.72819H18.7039V8.97196L16.4518 8.97196V11.2157L18.7039 11.2157V13.4595L16.4518 13.4595V15.7033L18.7039 15.7033V17.947H15.3258V19.0689H14.1997V20.1908H13.0736V21.3127H6.3173V20.1908H5.19124V19.0689H4.06518V17.947H0.687012L0.687012 15.7033H2.93913V13.4595H0.687012L0.687012 11.2157H2.93913V8.97196H0.687012L0.687012 6.72819ZM11.9476 19.0689V17.947H13.0736V16.8252H14.1997L14.1997 7.85008H13.0736V6.72819H11.9476V5.60631L7.44336 5.60631V6.72819H6.3173V7.85008H5.19124L5.19124 16.8252H6.3173V17.947H7.44336V19.0689H11.9476ZM7.44336 13.4595H11.9476V15.7033H7.44336V13.4595ZM7.44336 8.97196H11.9476V11.2157H7.44336V8.97196Z" fill="black" fill-opacity="0.99"/>
</svg>
